<?xml version="1.0" encoding="UTF-8" standalone="no"?>
<!-- Created with Inkscape (http://www.inkscape.org/) -->

<svg
   xmlns:dc="http://purl.org/dc/elements/1.1/"
   xmlns:cc="http://creativecommons.org/ns#"
   xmlns:rdf="http://www.w3.org/1999/02/22-rdf-syntax-ns#"
   xmlns:svg="http://www.w3.org/2000/svg"
   xmlns="http://www.w3.org/2000/svg"
   xmlns:sodipodi="http://sodipodi.sourceforge.net/DTD/sodipodi-0.dtd"
   xmlns:inkscape="http://www.inkscape.org/namespaces/inkscape"
   width="512"
   height="512"
   viewBox="0 0 135.46666 135.46667"
   version="1.1"
   id="svg8"
   inkscape:version="0.92.2 (5c3e80d, 2017-08-06)"
   sodipodi:docname="Ideenschmiede.svg"
   inkscape:export-filename="C:\Users\fkr0389\Pictures\Ideenschmiede.png"
   inkscape:export-xdpi="96"
   inkscape:export-ydpi="96">
  <defs
     id="defs2" />
  <sodipodi:namedview
     id="base"
     pagecolor="#ffffff"
     bordercolor="#666666"
     borderopacity="1.0"
     inkscape:pageopacity="0.0"
     inkscape:pageshadow="2"
     inkscape:zoom="0.24748737"
     inkscape:cx="-1163.2958"
     inkscape:cy="250.84213"
     inkscape:document-units="px"
     inkscape:current-layer="layer1"
     showgrid="false"
     units="px"
     inkscape:snap-global="false"
     inkscape:window-width="1837"
     inkscape:window-height="1057"
     inkscape:window-x="75"
     inkscape:window-y="-8"
     inkscape:window-maximized="1" />
  <metadata
     id="metadata5">
    <rdf:RDF>
      <cc:Work
         rdf:about="">
        <dc:format>image/svg+xml</dc:format>
        <dc:type
           rdf:resource="http://purl.org/dc/dcmitype/StillImage" />
        <dc:title></dc:title>
      </cc:Work>
    </rdf:RDF>
  </metadata>
  <g
     inkscape:label="Ebene 1"
     inkscape:groupmode="layer"
     id="layer1"
     transform="translate(0,-161.53332)">
    <path
       style="fill:#000000;stroke-width:0.87723649"
       d="M 62.892985,291.9788 C 61.112705,291.45581 59.284772,290.51675 58.830951,289.89193 C 58.37713,289.26715 57.283997,288.94936 56.401784,289.18576 C 53.86961,289.86425 50.40934,287.40123 49.965824,284.60461 C 49.752532,283.25979 49.672707,281.08298 48.971812,280.584 C 48.35565,280.14532 46.932396,279.15 46.236806,277.04329 C 45.867956,275.92616 46.584911,273.74897 46.2791,272.49913 C 45.893886,270.92478 44.513077,270.27304 44.333956,268.90596 C 44.1364,267.39817 44.100158,266.15812 44.30456,265.49831 C 44.458274,265.0021 44.536959,264.50165 44.536837,263.99219 C 44.536032,260.61362 41.069475,256.83875 33.035982,251.27793 C 24.744621,245.5386 22.16598,242.23198 20.131134,234.72993 C 18.717063,229.51658 18.673523,227.81187 19.82073,222.58067 C 21.364097,215.54288 25.526691,209.50402 32.073006,204.80566 C 38.261103,200.36443 51.195684,197.43943 58.720981,198.77961 C 70.638874,200.90208 78.73032,207.87247 81.498929,218.4018 C 83.334272,225.38167 82.646709,230.04385 78.565601,238.29199 C 77.141003,241.1712 75.432496,246.23181 74.768973,249.53783 C 73.675906,254.98387 73.721053,255.65454 75.249391,256.67457 C 77.75769,258.34861 79.139835,260.99809 78.633977,263.16248 C 78.313533,264.53359 78.625867,265.61572 79.728232,266.9532 C 80.974997,268.46588 81.113189,269.30379 80.448649,271.32099 C 79.996406,272.69383 79.179975,275.27701 80.416156,276.76452 C 81.242607,279.84886 79.592297,282.97187 76.730838,283.73859 C 75.952325,283.9472 75.249365,284.74625 75.168744,285.51422 C 74.958353,287.51797 70.736742,291.69522 68.248221,292.36201 C 67.083094,292.6742 64.673263,292.50176 62.892985,291.9788 Z M 66.113335,253.66704 C 66.120547,247.82572 67.299712,243.42514 70.894821,235.82304 C 74.435675,228.33569 75.206183,222.34258 73.169938,218.12704 C 67.737416,206.88036 53.524575,202.87924 40.708605,208.98865 C 30.623525,213.79628 25.232971,223.34023 27.604235,232.1899 C 29.035726,237.5323 31.051525,239.94011 38.492395,245.19541 C 44.445281,249.39974 49.313853,254.41413 51.417715,258.50783 L 52.751004,261.10217 C 52.751004,261.10217 57.203531,260.97821 59.429794,260.38169 C 61.656057,259.78516 66.108584,257.52302 66.108584,257.52302 Z"
       id="path4515"
       inkscape:connector-curvature="0"
       sodipodi:nodetypes="cccccssscsccccccccccsccccccccscsccczcc" />
    <path
       style="fill:none;stroke:#000000;stroke-width:5.99999993;stroke-linecap:round;stroke-linejoin:miter;stroke-miterlimit:4;stroke-dasharray:none;stroke-opacity:1"
       d="M 72.193452,190.03273 C 75.973214,184.74106 80.130951,175.29165 80.130951,175.29165"
       id="path4517"
       inkscape:connector-curvature="0"
       sodipodi:nodetypes="cc" />
    <path
       style="fill:none;stroke:#000000;stroke-width:5.99999993;stroke-linecap:round;stroke-linejoin:miter;stroke-miterlimit:4;stroke-dasharray:none;stroke-opacity:1"
       d="M 83.154762,199.86011 C 83.154762,199.86011 100.91964,184.36308 111.88094,178.69343"
       id="path4519"
       inkscape:connector-curvature="0"
       sodipodi:nodetypes="cc" />
    <path
       style="fill:none;stroke:#000000;stroke-width:5.99999993;stroke-linecap:round;stroke-linejoin:miter;stroke-miterlimit:4;stroke-dasharray:none;stroke-opacity:1"
       d="M 91.092261,214.2232 C 98.302151,209.42606 103.69142,205.61376 112.6369,203.26189"
       id="path4521"
       inkscape:connector-curvature="0"
       sodipodi:nodetypes="cc" />
    <path
       style="fill:none;stroke:#000000;stroke-width:3.46499991;stroke-linecap:round;stroke-linejoin:miter;stroke-miterlimit:4;stroke-dasharray:none;stroke-opacity:1"
       d="M 45.578556,220.25183 C 41.358379,221.75089 37.833935,228.89708 38.364584,231.79909"
       id="path4550"
       inkscape:connector-curvature="0"
       sodipodi:nodetypes="cc" />
    <path
       style="fill:none;stroke:#ffffff;stroke-width:1.66499996;stroke-linecap:round;stroke-linejoin:miter;stroke-miterlimit:4;stroke-dasharray:none;stroke-opacity:1"
       d="M 52.117558,270.27303 C 59.649665,269.56352 65.581539,267.57383 71.360963,265.46218"
       id="path4552"
       inkscape:connector-curvature="0"
       sodipodi:nodetypes="cc" />
    <path
       style="fill:none;stroke:#ffffff;stroke-width:1.66499996;stroke-linecap:round;stroke-linejoin:miter;stroke-miterlimit:4;stroke-dasharray:none;stroke-opacity:1"
       d="M 54.790584,279.22802 C 62.322691,278.51851 68.254565,276.52882 74.033989,274.41717"
       id="path4552-8"
       inkscape:connector-curvature="0"
       sodipodi:nodetypes="cc" />
  </g>
</svg>
